<?xml version="1.0" encoding="UTF-8"?>
<svg id="Layer_1" xmlns="http://www.w3.org/2000/svg" version="1.1" viewBox="0 0 343 70">
  <!-- Generator: Adobe Illustrator 30.1.0, SVG Export Plug-In . SVG Version: 2.1.1 Build 136)  -->
  <path d="M208.205,10.138c-.683-.683-1.025-1.537-1.025-2.562s.342-1.866,1.025-2.523c.684-.683,1.564-1.025,2.641-1.025s1.958.342,2.642,1.025c.709.658,1.064,1.499,1.064,2.523s-.355,1.879-1.064,2.562c-.684.657-1.564.985-2.642.985s-1.957-.328-2.641-.985ZM207.772,35.997h6.228V15.065h-6.228v20.932ZM202.145,31.739c-.684,0-1.183-.21-1.498-.63s-.473-1.117-.473-2.09v-9.618h4.372l.67-4.336h-5.042v-5.242l-6.228.709v18.566c0,5.02,2.286,7.542,6.859,7.568.999,0,1.997-.145,2.996-.433,1.025-.289,1.918-.697,2.68-1.223l-2.09-3.942c-.788.447-1.537.67-2.246.67ZM184.852,14.997l6.228.024v20.977h-5.519l-.315-2.444c-1.471,2.077-3.456,3.114-5.952,3.114-2.602,0-4.586-.999-5.952-2.995-1.341-1.997-2.01-4.73-2.01-8.199,0-2.129.355-4.034,1.064-5.716.709-1.682,1.708-2.995,2.995-3.941,1.314-.947,2.812-1.419,4.494-1.419,1.997,0,3.652.657,4.966,1.971v-1.37ZM184.852,20.702c-.499-.604-1.012-1.051-1.537-1.341-.499-.289-1.078-.433-1.735-.433-1.156,0-2.076.539-2.759,1.616-.683,1.077-1.025,2.733-1.025,4.967,0,2.444.289,4.152.868,5.125.604.972,1.458,1.458,2.562,1.458,1.446,0,2.654-.788,3.627-2.364v-9.027ZM169.596,14.475c-1.209,0-2.3.42-3.272,1.261-.946.815-1.656,1.945-2.129,3.39l-.512-4.06h-5.441v20.932h6.229v-10.367c.368-1.708.868-2.982,1.498-3.824.657-.867,1.603-1.301,2.838-1.301.473,0,1.104.092,1.892.276l.986-6.031c-.631-.183-1.328-.276-2.09-.276ZM137.203,35.997h6.228V6.078l-6.228.67v29.248ZM156.361,15.065h-6.346l-6.386,9.5,6.228,11.431h7.017l-6.859-11.747,6.346-9.184ZM132.469,17.352c1.813,1.945,2.72,4.678,2.72,8.199,0,2.234-.421,4.191-1.261,5.874-.815,1.656-1.997,2.943-3.548,3.863-1.524.92-3.337,1.379-5.44,1.379-3.18,0-5.689-.972-7.529-2.917-1.813-1.971-2.72-4.717-2.72-8.238,0-2.234.408-4.178,1.222-5.834.841-1.682,2.024-2.983,3.548-3.902,1.55-.92,3.377-1.38,5.479-1.38,3.206,0,5.716.985,7.529,2.956ZM128.724,25.55c0-2.286-.315-3.955-.946-5.006-.604-1.051-1.551-1.577-2.838-1.577-1.262,0-2.208.538-2.838,1.616-.631,1.05-.946,2.693-.946,4.927,0,2.286.303,3.955.907,5.006.631,1.051,1.59,1.577,2.878,1.577,1.261,0,2.207-.525,2.838-1.577.631-1.077.946-2.733.946-4.967ZM106.94,14.395c-1.314,0-2.484.276-3.509.827-.999.526-1.918,1.354-2.759,2.484-.394-1.051-1.025-1.867-1.892-2.445-.841-.579-1.853-.867-3.035-.867-1.261,0-2.391.263-3.39.788-.972.499-1.866,1.275-2.68,2.327l-.434-2.445h-5.44v20.932h6.228v-14.31c.473-.893.959-1.564,1.459-2.01.526-.473,1.104-.709,1.734-.709,1.183,0,1.774.933,1.774,2.798v14.23h6.228v-14.31c.473-.92.959-1.602,1.459-2.049.499-.447,1.077-.67,1.734-.67,1.183,0,1.774.933,1.774,2.798v14.23h6.228v-15.295c0-1.971-.499-3.508-1.498-4.612-.999-1.13-2.326-1.695-3.981-1.695ZM78.864,17.234c1.708,1.892,2.562,4.52,2.562,7.884,0,.867-.04,1.616-.118,2.246h-12.969c.21,1.761.709,2.996,1.498,3.706.789.71,1.879,1.064,3.272,1.064.84,0,1.656-.145,2.444-.433.789-.316,1.643-.789,2.562-1.419l2.563,3.468c-2.444,1.945-5.164,2.917-8.16,2.917-3.39,0-5.992-.999-7.805-2.995-1.813-1.997-2.72-4.678-2.72-8.042,0-2.128.381-4.034,1.143-5.716.762-1.708,1.879-3.048,3.35-4.02,1.472-.998,3.233-1.498,5.282-1.498,3.022,0,5.387.946,7.095,2.838ZM75.317,23.343c-.053-3.206-1.183-4.809-3.39-4.809-1.078,0-1.918.394-2.523,1.182-.579.789-.933,2.09-1.065,3.903h6.977v-.276ZM60.204,22.2c0,5.071-1.261,8.645-3.784,10.722-2.523,2.05-5.795,3.075-9.815,3.075h-8.199V8.68h7.608c4.283,0,7.713.972,10.288,2.917,2.602,1.918,3.902,5.453,3.902,10.604ZM53.503,22.2c0-2.339-.276-4.152-.828-5.439-.552-1.288-1.301-2.168-2.247-2.642-.946-.499-2.115-.748-3.508-.748h-2.05v17.935h2.128c2.129,0,3.745-.657,4.849-1.972,1.104-1.34,1.656-3.719,1.656-7.134Z" fill="#0f004e"/>
  <polygon points="245.713 23.967 245.713 23.967 245.718 23.969 245.713 23.967" fill="#00bbc1"/>
  <path d="M246.888,24.515c.021.009.04.018.06.027-.02-.009-.04-.018-.06-.027Z" fill="#00bbc1"/>
  <path d="M238.05,18.464s.009.01.014.014h0c-.005-.005-.009-.01-.014-.014Z" fill="#00bbc1"/>
  <polygon points="234.517 14.162 234.517 14.162 234.518 14.164 234.517 14.162" fill="#00bbc1"/>
  <path d="M235.337,15.321c-.01-.014-.021-.027-.03-.042.01.014.021.028.03.042Z" fill="#00bbc1"/>
  <path d="M253.624,26.516s-.008-.002-.011-.002c.004,0,.008.002.011.002Z" fill="#00bbc1"/>
  <path d="M250.318,25.762c-.032-.009-.063-.02-.095-.03.032.01.063.021.095.03Z" fill="#00bbc1"/>
  <path d="M255.875,26.797c-.008,0-.014-.002-.021-.002.007,0,.014.002.021.002Z" fill="#00bbc1"/>
  <path d="M254.745,26.679s-.002,0-.004,0c.002,0,.002,0,.004,0Z" fill="#00bbc1"/>
  <path d="M251.41,26.057c-.032-.008-.063-.018-.095-.026.032.008.063.017.095.026Z" fill="#00bbc1"/>
  <path d="M252.512,26.309c-.019-.005-.038-.009-.057-.014.019.005.038.009.057.014Z" fill="#00bbc1"/>
  <g>
    <path d="M258.889,20.03s-.006.005-.011.007h0s.007-.005.011-.007ZM260.743,18.849c-.007.005-.014.009-.02.015-.009.005-.018.011-.026.017.008-.006.018-.012.026-.017.007-.005.013-.009.02-.015ZM247.157,25.32c-.007.002-.015.004-.021.006.007-.002.014-.004.021-.006h0ZM281.256,27.643c0,.216.013.429.033.641-2.756.741-5.379,1.938-7.723,3.565-4.459,3.055-7.798,7.516-9.396,12.557-.241.744-.429,1.498-.594,2.256,3.979.464,7.069,3.842,7.069,7.945,0,4.422-3.584,8.005-8.005,8.005s-8.004-3.583-8.004-8.005c0-.432.043-.855.108-1.268-1.391-.451-2.765-.965-4.108-1.552-1.09-.485-2.158-1.018-3.205-1.594-1.253,1.657-3.233,2.731-5.47,2.731-1.431,0-2.759-.439-3.858-1.187-4.097,3.152-8.744,5.651-13.776,7.352.059-.39.099-.786.099-1.192,0-1.98-.725-3.789-1.917-5.186.196-.276.39-.551.572-.835,1.409-2.232,2.415-4.718,2.898-7.317.506-2.599.51-5.281,0-7.902-.072-.36-.158-.717-.249-1.073-3.169-1.082-5.451-4.079-5.451-7.614,0-4.447,3.605-8.053,8.052-8.053,2.584,0,4.877,1.222,6.351,3.113.07.089.137.181.204.273.059.082.119.164.175.248.734,1.092,1.173,2.28,1.294,3.676-.008.084,0,.118,0,.181-.014.001.016.002.002.003.013.186.028.37.028.558,0,.317-.023.627-.059.934.228-.008.458-.006.686-.018,3.569-.181,7.119-.713,10.57-1.614.233.621.557,1.197.95,1.717-2.847.626-5.75,1.01-8.665,1.158-1.243.063-2.489.073-3.735.043-.502,1.773-1.604,3.305-3.083,4.353,1.435,2.139,3.077,4.14,4.9,5.965,1.13-.817,2.513-1.304,4.014-1.304,1.067,0,2.072.25,2.972.685,2.331-2.716,4.31-5.723,5.89-8.953.006.004.014.006.02.009.697.364,1.464.608,2.277.712-1.42,3.711-3.306,7.201-5.607,10.389.82,1.13,1.308,2.516,1.308,4.019,0,.705-.107,1.385-.305,2.026,1.112.547,2.246,1.05,3.405,1.492,1.212.458,2.449.85,3.701,1.188,1.286-2.341,3.707-3.971,6.527-4.143.181-1.72.54-3.43,1.079-5.096,1.695-5.345,5.234-10.074,9.961-13.314,1.682-1.166,3.498-2.123,5.401-2.867-.729-.797-1.365-1.658-1.894-2.563-.598-1.021-1.06-2.098-1.388-3.195-.708.267-1.462.437-2.248.494-.279.029-.561.045-.848.045-1.164,0-2.268-.252-3.267-.697-2.522,1.966-5.242,3.689-8.105,5.147-.035-.886-.231-1.729-.572-2.498,2.203-1.268,4.304-2.702,6.283-4.281-1.476-1.46-2.392-3.484-2.392-5.724,0-4.447,3.605-8.051,8.052-8.051.09,0,.178.011.267.013h0c4.438,0,8.038,3.599,8.038,8.037,0,2.582-1.223,4.874-3.116,6.344.578.836,1.24,1.591,1.977,2.226,1.17,1.009,2.501,1.741,3.866,2.168-1.228,1.24-1.988,2.945-1.988,4.829ZM235.099,46.063c0-1.65.584-3.164,1.553-4.347-1.816-1.985-3.438-4.151-4.845-6.452-.141.066-.285.125-.429.183.069.59.125,1.182.147,1.778.117,2.169-.086,4.347-.543,6.472-.462,2.126-1.207,4.192-2.21,6.137-.426.817-.912,1.604-1.435,2.368,2.853-1.08,5.561-2.443,8.085-4.059-.209-.656-.324-1.355-.324-2.08Z" fill="#0f004e"/>
    <path d="M224.425,57.895c0,4.417-3.582,7.999-8,7.999s-7.999-3.581-7.999-7.999,3.58-7.999,7.999-7.999,8,3.582,8,7.999ZM288.117,20.781c-3.791,0-6.861,3.073-6.861,6.862,0,.215.013.426.032.636-2.755.741-5.377,1.943-7.722,3.569-4.458,3.055-7.796,7.516-9.395,12.557-.241.744-.429,1.498-.594,2.256.608.072,1.193.214,1.751.413.359-1.399.853-2.763,1.486-4.067,1.995-4.169,5.352-7.587,9.459-9.627,1.944-.978,4.023-1.626,6.138-1.932,1.23,1.842,3.326,3.054,5.707,3.054,3.788,0,6.861-3.072,6.861-6.86s-3.072-6.862-6.861-6.862ZM231.377,35.448c.069.59.125,1.182.147,1.778.002.032,0,.063.002.095,1.233,2.072,2.638,4.039,4.203,5.868.245-.53.556-1.025.922-1.472-1.816-1.985-3.438-4.151-4.845-6.452-.141.066-.285.125-.429.183ZM266.553,17.802c-.635-.625-1.163-1.355-1.566-2.159-1.365,1.15-2.788,2.226-4.264,3.222-.606.405-1.222.793-1.844,1.174-1.244-1.262-2.972-2.047-4.884-2.047-3.789,0-6.861,3.072-6.861,6.862,0,.158.013.312.023.467-2.634.808-5.332,1.398-8.057,1.78-.915.13-1.834.233-2.755.312.014.195.029.389.029.587,0,.306-.021.606-.054.903.229-.008.459-.006.688-.018,3.569-.181,7.119-.713,10.57-1.614.978,2.596,3.477,4.445,6.415,4.445,3.788,0,6.861-3.072,6.861-6.862,0-.986-.211-1.922-.587-2.769,2.205-1.268,4.305-2.703,6.284-4.282ZM250.635,51.786c-1.09-.485-2.158-1.018-3.205-1.594-.459.606-1.016,1.132-1.646,1.558,1.563.954,3.183,1.811,4.852,2.554,1.341.586,2.711,1.099,4.102,1.549-.063-.404-.105-.815-.105-1.236,0-.436.044-.86.111-1.277-1.393-.451-2.766-.965-4.109-1.552Z" fill="#00b5cc"/>
  </g>
  <rect x="37.832" y="39.004" width="168.649" height="26.969" fill="#0f004e"/>
  <g isolation="isolate">
    <path d="M52.133,60.369l-.752-3.113h-4.22l-.731,3.113h-3.551l4.366-14.478h4.157l4.366,14.478h-3.635ZM47.746,54.77h3.05l-1.525-6.393-1.525,6.393Z" fill="#fff"/>
    <path d="M67.989,60.369h-4.366l-4.178-11.219c.139,1.101.247,2.072.324,2.915s.115,1.842.115,2.998v5.306h-3.05v-14.478h4.262l4.283,11.239c-.307-1.908-.459-3.705-.459-5.39v-5.85h3.071v14.478Z" fill="#fff"/>
    <path d="M80.023,45.892v2.59l-6.288,9.15h6.393l-.334,2.737h-10.09v-2.57l6.414-9.254h-5.766v-2.653h9.673ZM77.871,40.648l1.17,1.358-2.946,2.695h-2.005l-2.966-2.695,1.19-1.358,2.779,1.755,2.778-1.755Z" fill="#fff"/>
    <path d="M90.928,45.892l-.355,2.444h-5.097v3.468h4.45v2.402h-4.45v3.698h5.453v2.465h-8.879v-14.478h8.879Z" fill="#fff"/>
  </g>
  <g isolation="isolate">
    <path d="M102.941,45.892l-.334,2.632h-3.572v11.845h-3.426v-11.845h-3.74v-2.632h11.072Z" fill="#fff"/>
  </g>
  <g isolation="isolate">
    <path d="M110.899,60.369l-.753-3.113h-4.22l-.731,3.113h-3.551l4.366-14.478h4.157l4.366,14.478h-3.635ZM106.511,54.77h3.05l-1.524-6.393-1.525,6.393Z" fill="#fff"/>
  </g>
  <g isolation="isolate">
    <path d="M123.978,45.892v11.762h5.641l-.355,2.716h-8.712v-14.478h3.427Z" fill="#fff"/>
  </g>
  <g isolation="isolate">
    <path d="M141.054,47.521c1.149,1.323,1.724,3.189,1.724,5.599,0,1.574-.261,2.932-.783,4.074s-1.274,2.016-2.257,2.622c-.981.606-2.148.909-3.499.909s-2.514-.299-3.488-.898c-.976-.599-1.724-1.466-2.246-2.601s-.783-2.503-.783-4.105c0-1.56.261-2.911.783-4.053.522-1.142,1.271-2.016,2.246-2.622.975-.606,2.138-.909,3.488-.909,2.062,0,3.667.662,4.815,1.985ZM134.035,49.245c-.48.801-.721,2.093-.721,3.875s.244,3.078.731,3.886,1.219,1.211,2.193,1.211c1.003,0,1.744-.4,2.226-1.201.48-.801.721-2.1.721-3.896s-.244-3.092-.731-3.886c-.488-.793-1.226-1.19-2.215-1.19s-1.724.4-2.204,1.201Z" fill="#fff"/>
    <path d="M155.919,47.312l-1.734,1.818c-.516-.39-.992-.672-1.431-.846s-.944-.261-1.515-.261c-1.073,0-1.93.421-2.569,1.264-.642.843-.962,2.121-.962,3.834,0,1.852.244,3.165.731,3.938.487.773,1.246,1.159,2.277,1.159.724,0,1.379-.16,1.964-.48v-3.28h-1.88l-.335-2.423h5.536v7.166c-.752.488-1.58.864-2.485,1.128-.906.265-1.812.397-2.716.397-2.201,0-3.858-.644-4.973-1.932s-1.671-3.179-1.671-5.672c0-1.588.303-2.953.908-4.095.606-1.142,1.435-2.009,2.486-2.601,1.052-.592,2.231-.888,3.541-.888,1.866,0,3.475.592,4.826,1.776Z" fill="#fff"/>
    <path d="M165.925,60.369l-.753-3.113h-4.22l-.731,3.113h-3.551l4.366-14.478h4.157l4.366,14.478h-3.635ZM161.538,54.77h3.05l-1.524-6.393-1.525,6.393Z" fill="#fff"/>
  </g>
  <g isolation="isolate">
    <path d="M175.391,54.833h-1.337v5.536h-3.427v-14.478h4.742c1.978,0,3.465.362,4.461,1.086.995.724,1.493,1.832,1.493,3.322,0,.933-.223,1.709-.668,2.329-.446.62-1.149,1.146-2.11,1.577l3.677,6.163h-3.864l-2.967-5.536ZM174.054,52.472h1.441c.766,0,1.34-.174,1.724-.522.383-.348.574-.898.574-1.65,0-.696-.206-1.205-.616-1.525-.411-.32-1.041-.48-1.891-.48h-1.232v4.178Z" fill="#fff"/>
  </g>
  <g isolation="isolate">
    <path d="M187.3,58.176c0,1.156-.206,2.11-.616,2.862-.411.752-.954,1.34-1.63,1.765-.676.425-1.479.791-2.413,1.097l-.919-2.423c.612-.237,1.072-.509,1.379-.815.306-.306.512-.661.616-1.065.104-.404.156-.919.156-1.546v-12.159h3.427v12.284Z" fill="#fff"/>
    <path d="M197.557,60.369l-.752-3.113h-4.22l-.731,3.113h-3.552l4.366-14.478h4.157l4.366,14.478h-3.635ZM193.17,54.77h3.05l-1.525-6.393-1.524,6.393Z" fill="#fff"/>
  </g>
</svg>